<?xml version="1.0" encoding="UTF-8"?>
<svg width="179px" height="28px" viewBox="0 0 179 28" version="1.1" xmlns="http://www.w3.org/2000/svg" xmlns:xlink="http://www.w3.org/1999/xlink">
    <title>编组 3</title>
    <g id="官网" stroke="none" stroke-width="1" fill="none" fill-rule="evenodd">
        <g id="首页" transform="translate(-227.000000, -36.000000)">
            <g id="编组-3" transform="translate(227.000000, 36.000000)">
                <polygon id="Fill-1" fill="#51459E" points="20.6984902 25.8828038 23.7642624 25.8828038 23.7642624 1.01933208 20.6984902 1.01933208"></polygon>
                <path d="M36.2361139,23.5103585 C34.4238713,23.5103585 32.8949571,22.8711132 31.6949157,21.6111132 C30.4927559,20.349 29.8837322,18.7894528 29.8837322,16.9768491 C29.8837322,15.1642453 30.5149985,13.5772264 31.7616435,12.2606981 C33.0056405,10.946283 34.5048979,10.2800943 36.2202263,10.2800943 C37.9344956,10.2800943 39.4406376,10.946283 40.6957559,12.2606981 C41.952463,13.578283 42.5895547,15.1594906 42.5895547,16.9615283 C42.5895547,18.7614528 41.9635843,20.3204717 40.7291198,21.5947358 C39.4973033,22.8653019 37.9848062,23.5103585 36.2361139,23.5103585 M36.2361139,7.25398113 C33.5993062,7.25398113 31.3353269,8.20756604 29.5050784,10.0862075 C27.6780074,11.9648491 26.7512322,14.2508113 26.7512322,16.8791132 C26.7512322,19.5079434 27.672182,21.787566 29.4897204,23.6545849 C31.3051405,25.523717 33.5754749,26.4709623 36.2361139,26.4709623 C38.8962234,26.4709623 41.1612618,25.523717 42.9671494,23.6540566 C44.7725074,21.787566 45.6881612,19.5079434 45.6881612,16.8791132 C45.6881612,14.250283 44.7613861,11.9643208 42.9337855,10.0862075 C41.1045962,8.20756604 38.8517382,7.25398113 36.2361139,7.25398113" id="Fill-2" fill="#51459E"></path>
                <path d="M61.6666121,14.4962075 C61.6666121,16.8186226 61.5638725,18.3839811 61.3621003,19.148434 C61.1619169,19.9017925 60.7943843,20.6266226 60.267976,21.2991509 C59.7420973,21.9700943 59.1018281,22.5010377 58.3672926,22.8787736 C57.6327571,23.2554528 56.8749198,23.4451132 56.1149642,23.4451132 C55.3465352,23.4451132 54.6898488,23.3299434 54.1623814,23.101717 C53.6412689,22.877717 53.2054198,22.5311509 52.8664849,22.071 C52.5217246,21.6029245 52.2569317,21.0207358 52.0789908,20.3397547 C51.8989317,19.6534906 51.8073133,18.324283 51.8073133,16.3896415 L51.8073133,7.71069811 L48.7410115,7.71069811 L48.7410115,17.0420943 C48.7410115,19.4743962 49.0111003,21.3076038 49.543334,22.4904717 C50.0798044,23.6833774 50.8964257,24.6332642 51.9714849,25.3153019 C53.0438962,25.9952264 54.2555885,26.3407358 55.5747867,26.3407358 C57.891195,26.3407358 59.9380441,25.3919057 61.6666121,23.5206604 L61.6666121,25.8832264 L64.7652186,25.8832264 L64.7652186,7.71069811 L61.6666121,7.71069811 L61.6666121,14.4962075 Z" id="Fill-4" fill="#51459E"></path>
                <path d="M107.025795,10.2473396 C108.481096,10.2473396 109.785466,10.6631132 110.904481,11.4830377 C111.957298,12.2564717 112.662706,13.3368491 113.001641,14.6961698 L101.20194,14.6961698 C102.209741,11.7033396 104.117839,10.2473396 107.025795,10.2473396 L107.025795,10.2473396 Z M116.445008,17.2668868 C116.378809,14.183717 115.446209,11.7181321 113.673685,9.93933962 C111.898514,8.15684906 109.662073,7.25398113 107.025795,7.25398113 C104.388987,7.25398113 102.144602,8.20756604 100.358309,10.0883208 C98.5762533,11.9659057 97.6717207,14.2508113 97.6717207,16.8791132 C97.6717207,19.5079434 98.5704278,21.7865094 100.342422,23.653 C102.116534,25.5226604 104.39799,26.4709623 107.124298,26.4709623 C109.093827,26.4709623 110.812863,26.0055283 112.233741,25.0852264 C113.651972,24.1686226 114.89491,22.734283 115.93025,20.8207736 L116.022928,20.6496038 L113.391946,19.2997925 L113.303505,19.4651509 C111.841848,22.1927736 109.695437,23.5758679 106.927292,23.5758679 C105.307818,23.5758679 103.893295,22.9957925 102.726617,21.8514906 C101.597011,20.7457547 100.955153,19.2696792 100.816931,17.4618302 L116.448715,17.4618302 L116.445008,17.2668868 Z" id="Fill-6" fill="#51459E"></path>
                <path d="M134.981146,11.1047736 C134.444676,9.91186792 133.628584,8.96145283 132.553525,8.27941509 C131.480054,7.59896226 130.267833,7.25398113 128.949164,7.25398113 C126.632226,7.25398113 124.585377,8.20281132 122.858398,10.0740566 L122.858398,7.71096226 L119.759791,7.71096226 L119.759791,25.8829623 L122.858398,25.8829623 L122.858398,19.0985094 C122.858398,16.7729245 122.961137,15.2080943 123.162909,14.4468113 C123.360975,13.6934528 123.729037,12.9707358 124.257034,12.295566 C124.783442,11.623566 125.422652,11.0926226 126.157717,10.7164717 C126.889605,10.3397925 127.646912,10.1496038 128.409516,10.1496038 C129.174238,10.1496038 129.830924,10.2653019 130.362628,10.4924717 C130.885859,10.7191132 131.322238,11.0667358 131.658525,11.5242453 C132.001167,11.9912642 132.266489,12.5734528 132.446019,13.2549623 C132.626608,13.9428113 132.717167,15.2720189 132.717167,17.2050755 L132.717167,25.8829623 L135.783998,25.8829623 L135.783998,16.5526226 C135.783998,14.1203208 135.513909,12.2876415 134.981146,11.1047736" id="Fill-8" fill="#51459E"></path>
                <path d="M155.108478,20.5123509 C153.452993,22.5452566 151.389727,23.5759736 148.974286,23.5759736 C146.966096,23.5759736 145.283602,22.902917 143.973937,21.5758226 C142.664271,20.2487283 141.999641,18.6358226 141.999641,16.781483 C141.999641,14.9303132 142.673804,13.3565019 144.001475,12.1049547 C145.332854,10.8502377 147.005815,10.2146906 148.974286,10.2146906 C151.47446,10.2146906 153.526076,11.2337849 155.072996,13.2418604 L155.178383,13.3797472 L157.61236,11.8487283 L157.514916,11.6881245 C156.672345,10.2939358 155.485543,9.19348302 153.987345,8.41793585 C152.494443,7.64555849 150.840017,7.25408679 149.072789,7.25408679 C146.089102,7.25408679 143.620703,8.21189811 141.738025,10.1021623 C139.855878,11.9903132 138.901034,14.2921245 138.901034,16.9442 C138.901034,19.5978604 139.851111,21.8732566 141.723727,23.7075208 C143.595283,25.5412566 145.958295,26.4710679 148.745505,26.4710679 C150.532327,26.4710679 152.21694,26.1023132 153.752738,25.3753698 C155.293304,24.6447283 156.555836,23.5680491 157.509091,22.1759736 L157.616596,22.0195962 L155.219691,20.3755208 L155.108478,20.5123509 Z" id="Fill-10" fill="#51459E"></path>
                <path d="M83.204284,23.0207283 C82.2356716,23.9869925 80.6596243,23.9869925 79.6904822,23.0207283 L72.2312663,15.5790679 C71.2626538,14.6128038 71.2626538,13.0405774 72.2312663,12.0743132 L75.6841657,8.63031321 L72.911784,5.86518113 L69.4599438,9.30918113 C66.9629467,11.8001245 66.9629467,15.8537849 69.4599438,18.3442 L76.9191598,25.7853321 C79.4161568,28.2762755 83.4791391,28.2762755 85.9756065,25.7853321 L89.4285059,22.3413321 L86.6571834,19.5762 L83.204284,23.0207283 Z" id="Fill-14" fill="#51459E"></path>
                <path d="M79.6905882,4.63333962 C80.6592006,3.66654717 82.2357775,3.66654717 83.2043899,4.63333962 L86.6567598,8.07733962 L89.4286118,5.31220755 L85.9757124,1.86820755 C83.4787154,-0.622735849 79.4157331,-0.622735849 76.9192657,1.86820755 L73.4663663,5.31220755 L76.2382183,8.07733962 L79.6905882,4.63333962 Z" id="Fill-16" fill="#FF7C00"></path>
                <path d="M89.2578204,6.58869057 L87.2115009,8.63004906 L84.3019565,11.5325396 L87.0738086,14.2976717 L89.9828234,11.3951811 L90.6633411,12.0740491 C91.6324831,13.0408415 91.6319536,14.6130679 90.6633411,15.5798604 L87.2109713,19.0233321 L89.9828234,21.7884642 L93.4351932,18.3444642 C95.9327198,15.8535208 95.9327198,11.8003887 93.4357228,9.30944528 L89.9828234,5.86544528 L89.2578204,6.58869057 Z" id="Fill-18" fill="#FFC223"></path>
                <path d="M17.6897544,25.3661245 C16.5818609,25.9187283 14.3666036,26.4713321 11.5274941,26.4713321 C4.95003846,26.4713321 1.99435471e-13,22.3273321 1.99435471e-13,14.695483 C1.99435471e-13,7.40861509 4.95003846,2.47004906 12.1852396,2.47004906 C15.0931953,2.47004906 16.9282101,3.09186038 17.7241775,3.50604906 L16.9970562,5.95789811 C15.8547396,5.40582264 14.2278521,4.99110566 12.2890385,4.99110566 C6.81947633,4.99110566 3.18439941,8.47895472 3.18439941,14.5914075 C3.18439941,20.2902 6.47312722,23.9502755 12.1508166,23.9502755 C13.9853018,23.9502755 15.8547396,23.5709547 17.066432,22.983483 L17.6897544,25.3661245 Z" id="Fill-20" fill="#51459E"></path>
                <path d="M169.425936,10.2473396 C170.881238,10.2473396 172.185078,10.6631132 173.304093,11.4830377 C174.357439,12.2564717 175.062847,13.3368491 175.401782,14.6961698 L163.602081,14.6961698 C164.609883,11.7033396 166.517451,10.2473396 169.425936,10.2473396 L169.425936,10.2473396 Z M175.703646,19.4651509 C174.24146,22.1927736 172.095578,23.5758679 169.327433,23.5758679 C167.70796,23.5758679 166.293436,22.9957925 165.126759,21.8514906 C163.997152,20.7457547 163.355294,19.2696792 163.217072,17.4618302 L178.848856,17.4618302 L178.845149,17.2668868 C178.778951,14.183717 177.84635,11.7181321 176.073297,9.93933962 C174.298125,8.15684906 172.062214,7.25398113 169.425936,7.25398113 C166.788599,7.25398113 164.544214,8.20756604 162.758451,10.0883208 C160.975865,11.9659057 160.071862,14.2508113 160.071862,16.8791132 C160.071862,19.5079434 160.97004,21.7865094 162.742563,23.653 C164.516146,25.5226604 166.797602,26.4709623 169.523909,26.4709623 C171.493969,26.4709623 173.212475,26.0055283 174.633883,25.0852264 C176.052114,24.1686226 177.295051,22.734283 178.329862,20.8207736 L178.42254,20.6496038 L175.792087,19.2997925 L175.703646,19.4651509 Z" id="Fill-12" fill="#51459E"></path>
            </g>
        </g>
    </g>
</svg>